<?xml version="1.0" encoding="UTF-8" standalone="no"?>
<svg width="2098.8px" height="1418.4px" viewBox="0 0 2098.8 1418.4"
 xmlns="http://www.w3.org/2000/svg" xmlns:xlink="http://www.w3.org/1999/xlink" version="1.2" baseProfile="tiny">
<title>272 새로운 계명.mscz (4)</title>
<desc>Generated by MuseScore 4.2.1</desc>
<polyline class="StaffLines" fill="none" stroke="#000000" stroke-width="2.75" stroke-linejoin="bevel" points="141.732,316.732 1959.73,316.732"/>
<polyline class="StaffLines" fill="none" stroke="#000000" stroke-width="2.75" stroke-linejoin="bevel" points="141.732,341.732 1959.73,341.732"/>
<polyline class="StaffLines" fill="none" stroke="#000000" stroke-width="2.75" stroke-linejoin="bevel" points="141.732,366.733 1959.73,366.733"/>
<polyline class="StaffLines" fill="none" stroke="#000000" stroke-width="2.75" stroke-linejoin="bevel" points="141.732,391.733 1959.73,391.733"/>
<polyline class="StaffLines" fill="none" stroke="#000000" stroke-width="2.75" stroke-linejoin="bevel" points="141.732,416.733 1959.73,416.733"/>
<path class="MeasureNumber" d="M125.222,263.612 C125.836,263.612 126.749,263.986 127.962,264.732 C129.176,265.479 130.236,265.852 131.142,265.852 C132.609,265.852 133.849,265.279 134.862,264.132 C135.876,262.986 136.382,261.572 136.382,259.892 C136.382,258.852 136.202,257.932 135.842,257.132 C135.482,256.332 135.022,255.712 134.462,255.272 C133.902,254.832 133.236,254.472 132.462,254.192 C131.689,253.912 130.962,253.732 130.282,253.652 C129.602,253.572 128.876,253.532 128.102,253.532 L128.102,253.012 C129.009,252.692 129.789,252.379 130.442,252.072 C131.096,251.766 131.782,251.352 132.502,250.832 C133.222,250.312 133.776,249.679 134.162,248.932 C134.549,248.186 134.742,247.332 134.742,246.372 C134.742,245.119 134.336,244.092 133.522,243.292 C132.709,242.492 131.649,242.092 130.342,242.092 C129.089,242.092 127.989,242.432 127.042,243.112 C126.096,243.792 125.209,244.866 124.382,246.332 L123.782,246.172 C124.476,244.279 125.416,242.726 126.602,241.512 C127.789,240.299 129.476,239.692 131.662,239.692 C133.502,239.692 135.002,240.199 136.162,241.212 C137.322,242.226 137.902,243.546 137.902,245.172 C137.902,246.266 137.622,247.226 137.062,248.052 C136.502,248.879 135.529,249.759 134.142,250.692 C135.742,251.386 136.996,252.272 137.902,253.352 C138.809,254.432 139.262,255.972 139.262,257.972 C139.262,260.799 138.216,263.059 136.122,264.752 C134.029,266.446 131.396,267.292 128.222,267.292 C126.836,267.292 125.736,267.086 124.922,266.672 C124.109,266.259 123.702,265.706 123.702,265.012 C123.702,264.586 123.842,264.246 124.122,263.992 C124.402,263.739 124.769,263.612 125.222,263.612 M153.582,251.892 C155.982,253.679 157.616,255.179 158.482,256.392 C159.349,257.606 159.782,258.986 159.782,260.532 C159.782,262.586 159.069,264.226 157.642,265.452 C156.216,266.679 154.302,267.292 151.902,267.292 C149.636,267.292 147.789,266.679 146.362,265.452 C144.936,264.226 144.222,262.639 144.222,260.692 C144.222,259.332 144.549,258.192 145.202,257.272 C145.856,256.352 147.262,255.079 149.422,253.452 C147.316,251.612 145.962,250.239 145.362,249.332 C144.762,248.426 144.462,247.319 144.462,246.012 C144.462,244.199 145.182,242.692 146.622,241.492 C148.062,240.292 149.876,239.692 152.062,239.692 C154.062,239.692 155.709,240.226 157.002,241.292 C158.296,242.359 158.942,243.719 158.942,245.372 C158.942,246.732 158.542,247.892 157.742,248.852 C156.942,249.812 155.556,250.826 153.582,251.892 M150.462,254.252 C149.289,255.186 148.462,256.119 147.982,257.052 C147.502,257.986 147.262,259.092 147.262,260.372 C147.262,262.106 147.729,263.506 148.662,264.572 C149.596,265.639 150.822,266.172 152.342,266.172 C153.649,266.172 154.709,265.766 155.522,264.952 C156.336,264.139 156.742,263.079 156.742,261.772 C156.742,261.346 156.696,260.946 156.602,260.572 C156.509,260.199 156.416,259.872 156.322,259.592 C156.229,259.312 156.042,258.999 155.762,258.652 C155.482,258.306 155.256,258.032 155.082,257.832 C154.909,257.632 154.596,257.346 154.142,256.972 C153.689,256.599 153.349,256.332 153.122,256.172 C152.896,256.012 152.469,255.706 151.842,255.252 C151.216,254.799 150.756,254.466 150.462,254.252 M152.422,251.172 C152.449,251.146 152.629,251.019 152.962,250.792 C153.296,250.566 153.536,250.386 153.682,250.252 C153.829,250.119 154.056,249.912 154.362,249.632 C154.669,249.352 154.902,249.086 155.062,248.832 C155.222,248.579 155.402,248.272 155.602,247.912 C155.802,247.552 155.949,247.152 156.042,246.712 C156.136,246.272 156.182,245.812 156.182,245.332 C156.182,243.946 155.782,242.846 154.982,242.032 C154.182,241.219 153.102,240.812 151.742,240.812 C150.489,240.812 149.456,241.186 148.642,241.932 C147.829,242.679 147.422,243.626 147.422,244.772 C147.422,245.892 147.809,246.946 148.582,247.932 C149.356,248.919 150.636,249.999 152.422,251.172"/>
<polyline class="BarLine" fill="none" stroke="#000000" stroke-width="4.50" stroke-linejoin="bevel" points="1934.48,315.357 1934.48,418.108"/>
<polyline class="BarLine" fill="none" stroke="#000000" stroke-width="13.75" stroke-linejoin="bevel" points="1952.86,315.357 1952.86,418.108"/>
<polyline class="BarLine" fill="none" stroke="#000000" stroke-width="4.50" stroke-linejoin="bevel" points="1692.02,315.357 1692.02,418.108"/>
<polyline class="BarLine" fill="none" stroke="#000000" stroke-width="4.50" stroke-linejoin="bevel" points="1186.18,315.357 1186.18,418.108"/>
<polyline class="BarLine" fill="none" stroke="#000000" stroke-width="4.50" stroke-linejoin="bevel" points="754.411,315.357 754.411,418.108"/>
<path class="Accidental" d="M1219.23,393.733 C1219.83,393.633 1220.33,392.933 1220.33,392.333 L1220.33,386.433 C1220.33,385.433 1219.63,385.033 1218.73,385.033 L1215.43,385.733 L1215.43,370.833 L1212.63,370.833 L1212.63,386.333 L1203.73,388.133 L1203.73,374.033 L1200.93,374.033 L1200.93,388.733 L1197.03,389.533 C1196.43,389.633 1195.93,390.333 1195.93,390.933 L1195.93,396.733 C1195.93,397.833 1196.73,398.133 1197.63,398.133 L1200.93,397.433 L1200.93,413.933 L1197.03,414.733 C1196.43,414.833 1195.93,415.533 1195.93,416.133 L1195.93,421.933 C1195.93,423.033 1196.73,423.333 1197.63,423.333 L1200.93,422.633 L1200.93,437.533 L1203.73,437.533 L1203.73,422.033 L1212.63,420.233 L1212.63,434.333 L1215.43,434.333 L1215.43,419.633 L1219.23,418.933 C1219.83,418.833 1220.33,418.133 1220.33,417.533 L1220.33,411.633 C1220.33,410.633 1219.63,410.233 1218.73,410.233 L1215.43,410.933 L1215.43,394.433 L1219.23,393.733 M1203.73,396.833 L1212.63,395.033 L1212.63,411.533 L1203.73,413.433 L1203.73,396.833 "/>
<path class="Accidental" d="M461.607,393.733 C462.207,393.633 462.707,392.933 462.707,392.333 L462.707,386.433 C462.707,385.433 462.007,385.033 461.107,385.033 L457.807,385.733 L457.807,370.833 L455.007,370.833 L455.007,386.333 L446.107,388.133 L446.107,374.033 L443.307,374.033 L443.307,388.733 L439.407,389.533 C438.807,389.633 438.307,390.333 438.307,390.933 L438.307,396.733 C438.307,397.833 439.107,398.133 440.007,398.133 L443.307,397.433 L443.307,413.933 L439.407,414.733 C438.807,414.833 438.307,415.533 438.307,416.133 L438.307,421.933 C438.307,423.033 439.107,423.333 440.007,423.333 L443.307,422.633 L443.307,437.533 L446.107,437.533 L446.107,422.033 L455.007,420.233 L455.007,434.333 L457.807,434.333 L457.807,419.633 L461.607,418.933 C462.207,418.833 462.707,418.133 462.707,417.533 L462.707,411.633 C462.707,410.633 462.007,410.233 461.107,410.233 L457.807,410.933 L457.807,394.433 L461.607,393.733 M446.107,396.833 L455.007,395.033 L455.007,411.533 L446.107,413.433 L446.107,396.833 "/>
<polyline class="LedgerLine" fill="none" stroke="#000000" stroke-width="4.00" stroke-linejoin="bevel" points="1397.06,441.733 1447.05,441.733"/>
<polyline class="LedgerLine" fill="none" stroke="#000000" stroke-width="4.00" stroke-linejoin="bevel" points="1397.06,466.733 1447.05,466.733"/>
<polyline class="Stem" fill="none" stroke="#000000" stroke-width="2.50" stroke-linejoin="bevel" points="1120.52,387.733 1120.52,316.652"/>
<polyline class="Stem" fill="none" stroke="#000000" stroke-width="2.50" stroke-linejoin="bevel" points="594.1,412.733 594.1,341.813"/>
<polyline class="Stem" fill="none" stroke="#000000" stroke-width="2.50" stroke-linejoin="bevel" points="688.751,425.233 688.751,347.902"/>
<polyline class="Stem" fill="none" stroke="#000000" stroke-width="2.50" stroke-linejoin="bevel" points="1750.51,425.233 1750.51,341.732"/>
<polyline class="Stem" fill="none" stroke="#000000" stroke-width="2.50" stroke-linejoin="bevel" points="499.448,400.233 499.448,316.932"/>
<polyline class="Stem" fill="none" stroke="#000000" stroke-width="2.50" stroke-linejoin="bevel" points="782.911,370.933 782.911,441.733"/>
<polyline class="Stem" fill="none" stroke="#000000" stroke-width="2.50" stroke-linejoin="bevel" points="319.467,375.233 319.467,297.982"/>
<polyline class="Stem" fill="none" stroke="#000000" stroke-width="2.50" stroke-linejoin="bevel" points="1025.87,375.233 1025.87,310.563"/>
<polyline class="Stem" fill="none" stroke="#000000" stroke-width="2.50" stroke-linejoin="bevel" points="1626.36,412.733 1626.36,341.732"/>
<polyline class="Stem" fill="none" stroke="#000000" stroke-width="2.50" stroke-linejoin="bevel" points="1531.7,412.733 1531.7,341.732"/>
<polyline class="Stem" fill="none" stroke="#000000" stroke-width="2.50" stroke-linejoin="bevel" points="1257.07,400.233 1257.07,316.732"/>
<polyline class="Stem" fill="none" stroke="#000000" stroke-width="2.50" stroke-linejoin="bevel" points="1437.05,462.733 1437.05,366.933"/>
<path class="Note" d="M1225.83,408.433 C1225.83,412.733 1228.93,417.533 1237.03,417.533 C1247.43,417.533 1258.33,409.033 1258.33,400.233 C1258.33,394.333 1253.33,391.033 1247.13,391.033 C1237.43,391.033 1225.83,399.233 1225.83,408.433"/>
<path class="Note" d="M562.857,420.933 C562.857,425.233 565.957,430.033 574.057,430.033 C584.457,430.033 595.357,421.533 595.357,412.733 C595.357,406.833 590.357,403.533 584.157,403.533 C574.457,403.533 562.857,411.733 562.857,420.933"/>
<path class="Note" d="M1740.57,416.033 C1730.87,416.033 1719.27,424.133 1719.27,433.433 C1719.27,437.733 1722.37,442.533 1730.47,442.533 C1740.87,442.533 1751.77,434.033 1751.77,425.233 C1751.77,419.333 1746.77,416.033 1740.57,416.033 M1726.77,437.833 C1723.47,437.833 1722.77,435.133 1722.77,434.233 C1722.77,429.333 1739.57,420.733 1744.27,420.733 C1746.67,420.733 1748.27,422.133 1748.27,424.333 C1748.27,429.333 1731.37,437.833 1726.77,437.833"/>
<path class="Note" d="M657.509,433.433 C657.509,437.733 660.609,442.533 668.709,442.533 C679.109,442.533 690.009,434.033 690.009,425.233 C690.009,419.333 685.009,416.033 678.809,416.033 C669.109,416.033 657.509,424.233 657.509,433.433"/>
<path class="Note" d="M468.206,408.433 C468.206,412.733 471.306,417.533 479.406,417.533 C489.806,417.533 500.706,409.033 500.706,400.233 C500.706,394.333 495.706,391.033 489.506,391.033 C479.806,391.033 468.206,399.233 468.206,408.433"/>
<path class="Note" d="M802.961,353.533 C793.261,353.533 781.661,361.633 781.661,370.933 C781.661,375.233 784.761,380.033 792.861,380.033 C803.261,380.033 814.161,371.533 814.161,362.733 C814.161,356.833 809.161,353.533 802.961,353.533 M789.161,375.333 C785.861,375.333 785.161,372.633 785.161,371.733 C785.161,366.833 801.961,358.233 806.661,358.233 C809.061,358.233 810.661,359.633 810.661,361.833 C810.661,366.833 793.761,375.333 789.161,375.333"/>
<path class="Note" d="M1595.11,420.933 C1595.11,425.233 1598.21,430.033 1606.31,430.033 C1616.71,430.033 1627.61,421.533 1627.61,412.733 C1627.61,406.833 1622.61,403.533 1616.41,403.533 C1606.71,403.533 1595.11,411.733 1595.11,420.933"/>
<path class="Note" d="M994.627,383.433 C994.627,387.733 997.727,392.533 1005.83,392.533 C1016.23,392.533 1027.13,384.033 1027.13,375.233 C1027.13,369.333 1022.13,366.033 1015.93,366.033 C1006.23,366.033 994.627,374.233 994.627,383.433"/>
<path class="Note" d="M1500.46,420.933 C1500.46,425.233 1503.56,430.033 1511.66,430.033 C1522.06,430.033 1532.96,421.533 1532.96,412.733 C1532.96,406.833 1527.96,403.533 1521.76,403.533 C1512.06,403.533 1500.46,411.733 1500.46,420.933"/>
<path class="Note" d="M1089.28,395.933 C1089.28,400.233 1092.38,405.033 1100.48,405.033 C1110.88,405.033 1121.78,396.533 1121.78,387.733 C1121.78,381.833 1116.78,378.533 1110.58,378.533 C1100.88,378.533 1089.28,386.733 1089.28,395.933"/>
<path class="Note" d="M1405.81,470.933 C1405.81,475.233 1408.91,480.033 1417.01,480.033 C1427.41,480.033 1438.31,471.533 1438.31,462.733 C1438.31,456.833 1433.31,453.533 1427.11,453.533 C1417.41,453.533 1405.81,461.733 1405.81,470.933"/>
<path class="Note" d="M288.225,383.433 C288.225,387.733 291.325,392.533 299.425,392.533 C309.825,392.533 320.725,384.033 320.725,375.233 C320.725,369.333 315.725,366.033 309.525,366.033 C299.825,366.033 288.225,374.233 288.225,383.433"/>
<path class="Clef" d="M174.032,443.033 C174.032,449.633 179.032,458.333 192.532,458.333 C197.232,458.333 201.332,457.133 204.932,454.933 C210.332,451.133 211.732,444.533 211.732,438.233 C211.732,434.333 211.132,429.833 210.132,424.133 C209.832,422.133 209.232,419.133 208.632,415.233 C218.432,412.033 225.732,401.833 225.732,391.533 C225.732,376.433 215.032,366.233 200.432,366.233 C199.432,360.233 198.432,354.333 197.632,348.733 C208.132,337.633 215.432,325.133 215.432,309.233 C215.432,300.133 212.632,292.733 211.032,289.133 C208.632,284.033 205.732,280.533 203.932,280.533 C203.232,280.533 200.132,281.733 196.832,285.633 C190.432,293.233 188.632,306.033 188.632,314.433 C188.632,319.833 189.132,324.733 190.832,335.933 C190.732,336.033 185.532,341.333 183.432,343.033 C174.332,351.433 161.732,363.633 161.732,383.633 C161.732,402.333 178.032,417.033 196.632,417.033 C199.532,417.033 202.232,416.733 204.532,416.333 C206.432,425.933 207.632,432.933 207.632,438.233 C207.632,448.633 202.232,454.133 192.132,454.133 C189.732,454.133 187.632,453.633 187.432,453.633 C187.332,453.533 187.132,453.433 187.132,453.333 C187.132,453.133 187.332,453.033 187.632,453.033 C192.332,452.233 197.032,448.233 197.032,441.833 C197.032,436.433 192.932,430.733 185.432,430.733 C178.432,430.733 174.032,436.433 174.032,443.033 M194.932,309.533 C195.832,305.533 200.432,295.033 205.632,295.033 C207.132,295.033 209.532,299.833 209.532,306.833 C209.532,317.233 201.832,325.033 194.932,331.833 C194.332,327.833 193.832,323.933 193.832,319.733 C193.832,316.033 194.132,312.633 194.932,309.533 M203.732,412.333 C201.732,412.733 199.832,412.933 197.932,412.933 C183.632,412.933 171.432,402.933 171.432,387.833 C171.432,375.633 180.032,364.733 188.832,357.133 C190.532,355.633 192.132,354.233 193.632,352.733 C194.532,358.133 195.232,362.833 195.932,366.933 C186.832,369.633 180.632,379.233 180.632,388.633 C180.632,395.633 186.132,405.233 194.132,405.233 C194.932,405.233 195.832,404.833 195.832,403.933 C195.832,403.033 194.832,402.533 193.632,401.733 C189.732,399.333 187.532,396.733 187.532,391.833 C187.532,385.733 192.132,380.833 197.932,379.433 L203.732,412.333 M217.932,393.833 C217.932,400.933 215.032,408.233 207.932,411.133 C205.832,399.133 203.132,383.233 202.432,378.833 C211.432,378.833 217.932,384.933 217.932,393.833"/>
<path class="Beam" fill-rule="evenodd" d="M592.85,335.47 L690.001,341.72 L690.001,354.245 L592.85,347.995 L592.85,335.47 "/>
<path class="Beam" fill-rule="evenodd" d="M1024.62,304.22 L1121.77,310.47 L1121.77,322.995 L1024.62,316.745 L1024.62,304.22 "/>
<path class="Beam" fill-rule="evenodd" d="M1530.45,335.482 L1627.61,335.482 L1627.61,347.982 L1530.45,347.982 L1530.45,335.482 "/>
<path class="Hook" d="M498.198,339.432 C498.198,339.732 498.298,340.332 498.998,340.532 C503.298,341.932 511.898,347.332 518.398,358.432 C520.198,361.532 523.098,365.832 523.098,374.132 C523.098,381.332 521.298,388.732 518.598,395.932 C518.398,396.532 518.298,397.032 518.298,397.432 C518.298,398.132 518.698,398.432 519.398,398.432 C519.998,398.432 520.498,398.032 520.898,397.332 C525.398,389.332 527.098,380.032 527.098,370.932 C526.598,358.032 519.198,348.532 519.198,348.532 C519.498,348.532 509.998,336.232 507.298,332.032 C503.598,326.332 501.898,320.632 501.698,320.232 C501.598,319.932 500.698,316.332 500.698,316.332 C500.598,315.932 500.098,315.532 499.498,315.532 C498.798,315.532 498.198,316.132 498.198,316.832 L498.198,339.432 "/>
<path class="Hook" d="M1435.8,389.433 C1435.8,389.733 1435.9,390.333 1436.6,390.533 C1440.9,391.933 1449.5,397.333 1456,408.433 C1457.8,411.533 1460.7,415.833 1460.7,424.133 C1460.7,431.333 1458.9,438.733 1456.2,445.933 C1456,446.533 1455.9,447.033 1455.9,447.433 C1455.9,448.133 1456.3,448.433 1457,448.433 C1457.6,448.433 1458.1,448.033 1458.5,447.333 C1463,439.333 1464.7,430.033 1464.7,420.933 C1464.2,408.033 1456.8,398.533 1456.8,398.533 C1457.1,398.533 1447.6,386.233 1444.9,382.033 C1441.2,376.333 1439.5,370.633 1439.3,370.233 C1439.2,369.933 1438.3,366.333 1438.3,366.333 C1438.2,365.933 1437.7,365.533 1437.1,365.533 C1436.4,365.533 1435.8,366.133 1435.8,366.833 L1435.8,389.433 "/>
<path class="Lyrics" d="M1233.37,513.558 C1231.44,513.558 1230.25,513.469 1229.83,513.29 C1229.04,513.004 1228.16,512.556 1227.2,511.948 C1226.02,511.197 1225.43,510.643 1225.43,510.285 C1225.43,510.178 1225.6,510.088 1225.96,510.017 C1226.25,510.017 1226.95,510.106 1228.05,510.285 C1229.16,510.464 1229.97,510.553 1230.47,510.553 L1236.8,510.5 C1237.84,510.5 1238.57,510.598 1239,510.795 C1239.43,510.991 1239.64,511.412 1239.64,512.056 C1239.64,512.592 1239.02,512.977 1237.77,513.209 C1236.51,513.442 1235.05,513.558 1233.37,513.558 M1248.18,518.119 C1248.07,518.584 1247.67,518.915 1246.97,519.112 C1246.27,519.309 1245.4,519.407 1244.37,519.407 L1241.74,519.353 C1241.09,519.353 1239.56,519.434 1237.15,519.595 C1234.74,519.756 1233.31,519.836 1232.88,519.836 C1232.06,519.836 1231.09,519.917 1229.96,520.078 C1228.83,520.239 1227.68,520.409 1226.5,520.587 C1225.57,520.838 1224.64,521.07 1223.71,521.285 C1223.1,521.285 1221.99,520.918 1220.38,520.185 C1218.77,519.452 1217.97,518.942 1217.97,518.656 C1217.97,518.513 1218.11,518.423 1218.4,518.387 C1218.43,518.387 1218.5,518.387 1218.61,518.387 C1219.25,518.387 1220.22,518.459 1221.51,518.602 C1222.8,518.745 1223.78,518.817 1224.46,518.817 C1225.35,518.817 1228.05,518.656 1232.54,518.334 C1237.02,518.012 1239.41,517.779 1239.7,517.636 C1240.13,517.636 1240.63,517.493 1241.2,517.207 C1242.49,516.563 1243.35,516.241 1243.78,516.241 C1245.46,516.241 1246.62,516.357 1247.26,516.59 C1247.91,516.822 1248.23,517.207 1248.23,517.743 L1248.18,518.119 M1266.15,528.797 C1266.04,529.262 1265.69,529.584 1265.08,529.763 C1264.47,529.942 1263.5,530.031 1262.18,530.031 L1255.58,530.353 L1255.37,537.49 C1255.37,539.1 1255.17,540.459 1254.78,541.568 C1254.38,542.677 1253.85,543.231 1253.17,543.231 C1252.88,543.231 1252.66,542.713 1252.5,541.675 C1252.34,540.638 1252.25,539.368 1252.25,537.865 L1251.99,510.5 C1251.99,509.963 1250.87,509.14 1248.63,508.031 C1246.4,506.922 1245.28,506.243 1245.28,505.992 C1245.28,505.67 1245.5,505.456 1245.95,505.348 C1246.4,505.241 1246.87,505.187 1247.37,505.187 C1248.66,505.187 1250.27,505.491 1252.2,506.1 C1254.63,506.851 1255.85,507.709 1255.85,508.675 C1255.85,508.854 1255.81,509.158 1255.74,509.587 C1255.67,510.017 1255.64,510.374 1255.64,510.661 L1255.58,528.636 L1258.43,528.475 L1261.27,526.973 L1263.04,526.973 C1264.04,526.973 1264.82,527.062 1265.37,527.241 C1265.93,527.42 1266.21,527.796 1266.21,528.368 L1266.15,528.797 M1243.88,531.051 C1243.88,533.34 1242.81,535.29 1240.66,536.9 C1238.66,538.402 1236.46,539.153 1234.06,539.153 C1230.77,539.153 1228.07,538.152 1225.96,536.148 C1224.14,534.396 1223.23,532.535 1223.23,530.568 C1223.23,527.635 1224.67,525.417 1227.57,523.914 C1229.07,523.378 1230.59,522.841 1232.13,522.304 C1232.35,522.197 1232.49,522.126 1232.56,522.09 C1232.74,521.983 1232.83,521.714 1232.83,521.285 C1232.83,521.07 1232.78,520.802 1232.67,520.48 C1232.56,520.158 1232.51,519.89 1232.51,519.675 C1232.51,519.425 1232.62,519.3 1232.83,519.3 C1233.37,519.3 1233.94,519.532 1234.55,519.997 C1235.16,520.462 1235.46,520.945 1235.46,521.446 C1235.46,521.661 1235.41,521.857 1235.3,522.036 C1235.26,522.108 1235.19,522.197 1235.08,522.304 C1237.05,522.591 1238.52,522.966 1239.48,523.431 C1242.42,524.862 1243.88,527.241 1243.88,530.568 L1243.88,531.051 M1260.89,552.353 C1260.89,552.961 1260.48,553.426 1259.66,553.748 C1258.84,554.07 1257.32,554.231 1255.1,554.231 L1238.46,554.339 C1236.85,554.339 1235.73,554.124 1235.08,553.695 C1234.26,553.122 1233.85,552.049 1233.85,550.475 L1233.85,545.861 C1233.85,545.109 1233.29,544.501 1232.16,544.036 C1231.03,543.571 1229.88,543.088 1228.7,542.587 C1228.7,542.23 1229.03,541.997 1229.69,541.89 C1230.35,541.783 1231.01,541.729 1231.65,541.729 C1233.58,541.729 1235.06,541.872 1236.08,542.158 C1237.1,542.444 1237.61,542.874 1237.61,543.446 C1237.61,543.589 1237.55,543.857 1237.44,544.251 C1237.34,544.644 1237.28,544.948 1237.28,545.163 L1237.28,550.422 C1237.28,551.316 1237.39,551.942 1237.61,552.3 C1237.82,552.657 1238.16,552.836 1238.63,552.836 L1249.89,552.3 C1250.32,552.3 1251.24,552.013 1252.63,551.441 C1252.88,551.37 1253.22,551.209 1253.65,550.958 L1256.39,550.851 C1257.67,550.851 1258.75,550.958 1259.61,551.173 C1260.46,551.387 1260.89,551.781 1260.89,552.353 M1241.31,530.514 L1241.31,530.031 C1241.31,528.457 1240.72,527.098 1239.54,525.953 C1237.96,524.415 1236.59,523.646 1235.41,523.646 C1235.16,524.075 1234.94,524.361 1234.76,524.504 C1234.37,524.826 1233.94,524.987 1233.47,524.987 C1232.33,524.987 1231.01,525.47 1229.5,526.436 C1227.61,527.652 1226.66,529.137 1226.66,530.89 C1226.66,532.321 1227.4,533.635 1228.89,534.834 C1230.37,536.032 1232.01,536.631 1233.8,536.631 C1235.69,536.631 1237.37,536.095 1238.84,535.022 C1240.49,533.805 1241.31,532.303 1241.31,530.514"/>
<path class="Lyrics" d="M1260.81,574.751 C1260.81,575.073 1260.76,575.502 1260.65,576.039 C1260.54,576.576 1260.49,576.933 1260.49,577.112 L1260.33,597.61 C1260.33,599.076 1260.26,600.364 1260.11,601.473 C1259.72,604.514 1258.97,606.034 1257.86,606.034 C1257.4,606.034 1257.12,605.471 1257.03,604.344 C1256.94,603.217 1256.89,602.35 1256.89,601.742 L1256.84,591.063 L1250.19,591.439 C1250.04,591.439 1249.56,591.6 1248.74,591.922 C1248.27,592.101 1247.93,592.19 1247.72,592.19 C1247.22,592.19 1246.25,591.85 1244.82,591.171 C1243.39,590.491 1242.68,589.99 1242.68,589.668 C1242.68,589.418 1242.85,589.293 1243.21,589.293 C1244.21,589.293 1245.48,589.337 1247.02,589.427 C1248.56,589.516 1249.44,589.561 1249.65,589.561 C1250.83,589.561 1252.07,589.516 1253.38,589.427 C1254.69,589.337 1255.82,589.257 1256.79,589.185 L1256.73,576.2 C1256.73,575.628 1255.76,574.823 1253.81,573.785 C1251.86,572.748 1250.89,572.122 1250.89,571.907 C1250.89,571.478 1251.37,571.263 1252.33,571.263 C1253.34,571.263 1254.59,571.46 1256.09,571.854 C1257.23,572.14 1258.47,572.533 1259.79,573.034 C1260.47,573.32 1260.81,573.893 1260.81,574.751 M1247.18,581.137 C1247.18,581.351 1247.03,581.584 1246.73,581.834 C1246.42,582.085 1246.16,582.299 1245.95,582.478 C1245.27,583.766 1244.63,584.857 1244.02,585.751 C1242.23,588.398 1239.99,591.046 1237.31,593.693 C1234.95,595.982 1231.92,598.433 1228.21,601.044 C1224.51,603.655 1222.2,604.961 1221.27,604.961 C1221.02,604.961 1220.89,604.818 1220.89,604.532 C1222.96,603.065 1225.25,601.312 1227.76,599.273 C1230.44,597.055 1232.84,594.748 1234.95,592.351 C1236.63,590.42 1238.17,588.381 1239.56,586.234 C1240.42,584.66 1241.3,583.086 1242.19,581.512 C1240.69,581.512 1239.31,581.548 1238.06,581.62 C1233.73,581.87 1231.43,581.995 1231.14,581.995 C1230.85,581.995 1230.53,582.067 1230.17,582.21 C1229.14,582.639 1228.47,582.854 1228.19,582.854 C1227.83,582.854 1226.84,582.415 1225.21,581.539 C1223.58,580.663 1222.77,580.081 1222.77,579.795 C1222.95,579.581 1223.11,579.473 1223.25,579.473 C1223.75,579.473 1224.63,579.545 1225.88,579.688 C1227.13,579.831 1227.96,579.902 1228.35,579.902 L1234.95,580.01 C1237.31,580.01 1239.26,579.885 1240.8,579.634 C1240.98,579.634 1241.24,579.563 1241.6,579.42 C1242.39,579.098 1242.85,578.937 1243,578.937 C1243.43,578.937 1244.23,579.205 1245.41,579.742 C1246.59,580.278 1247.18,580.743 1247.18,581.137 M1263.28,619.127 C1263.28,619.485 1263.19,619.771 1263.01,619.985 C1262.83,620.2 1262.55,620.307 1262.15,620.307 C1261.58,620.307 1260.15,619.27 1257.86,617.195 C1257.65,617.016 1255.61,615.049 1251.74,611.293 C1249.56,609.182 1248.36,608.127 1248.15,608.127 C1247.43,609.057 1246.79,609.826 1246.22,610.434 C1244.46,612.294 1242.46,614.065 1240.21,615.746 C1238.88,616.712 1236.93,617.875 1234.36,619.234 C1231.28,620.844 1229.17,621.649 1228.03,621.649 C1227.74,621.649 1227.6,621.452 1227.6,621.059 C1228.96,620.307 1230.57,619.377 1232.43,618.268 C1234.43,617.052 1236.42,615.603 1238.38,613.922 C1240.1,612.455 1241.66,610.846 1243.05,609.093 C1244.91,606.768 1245.84,605.247 1245.84,604.532 C1245.84,604.102 1245.41,603.548 1244.55,602.868 C1243.55,602.081 1242.57,601.294 1241.6,600.507 C1241.6,600.078 1242.1,599.863 1243.1,599.863 C1243.93,599.863 1245.39,600.346 1247.48,601.312 C1249.57,602.278 1250.62,603.101 1250.62,603.781 C1250.62,603.959 1250.6,604.102 1250.56,604.21 C1250.46,604.389 1250.38,604.514 1250.35,604.585 L1249.33,606.517 L1253.62,610.112 C1254.34,610.72 1255.32,611.328 1256.57,611.937 C1257.83,612.545 1258.49,612.867 1258.56,612.902 C1259.42,613.332 1260.42,614.262 1261.56,615.693 C1262.71,617.124 1263.28,618.268 1263.28,619.127"/>
<path class="Lyrics" d="M306.554,539.529 L306.285,539.583 C305.713,539.583 304.622,538.617 303.012,536.685 C302.046,535.54 301.17,534.467 300.383,533.465 C298.594,531.176 297.253,529.441 296.359,528.261 C295.894,527.617 295.285,526.794 294.534,525.792 C293.747,526.937 293.085,527.867 292.549,528.583 C290.939,530.657 289.24,532.562 287.451,534.297 C285.663,536.032 283.928,537.606 282.246,539.019 C280.565,540.432 279.51,541.139 279.08,541.139 L278.866,540.924 C278.866,540.745 279.313,540.191 280.207,539.261 C283.069,536.327 285.716,533.251 288.149,530.031 C289.937,527.67 291.654,524.773 293.3,521.339 C294.624,518.584 295.285,517.028 295.285,516.67 L295.339,516.456 C295.339,515.919 294.946,515.293 294.159,514.578 C293.264,513.862 292.37,513.147 291.476,512.431 C291.476,512.181 291.69,512.011 292.12,511.922 C292.549,511.832 292.799,511.787 292.871,511.787 C293.658,511.787 294.999,512.27 296.895,513.236 C298.791,514.202 299.739,515.043 299.739,515.758 C299.739,516.08 299.667,516.402 299.524,516.724 C299.489,516.796 299.328,517.064 299.041,517.529 L295.446,524.343 C298.487,526.955 301.134,529.316 303.388,531.426 C305.856,533.752 307.09,536.041 307.09,538.295 C307.09,538.903 306.911,539.314 306.554,539.529 M330.11,530.568 C330.11,531.104 329.752,531.516 329.037,531.802 C328.321,532.088 326.944,532.231 324.905,532.231 L319.378,532.392 L319.271,546.343 C319.271,549.456 319.092,551.879 318.734,553.614 C318.376,555.349 317.84,556.217 317.124,556.217 C316.838,556.217 316.597,555.716 316.4,554.714 C316.203,553.713 316.105,552.121 316.105,549.939 L315.944,509.963 C315.944,509.605 315.211,509.078 313.744,508.38 C312.277,507.683 310.793,506.958 309.29,506.207 C309.29,505.956 309.532,505.733 310.015,505.536 C310.498,505.339 311.043,505.241 311.651,505.241 C312.438,505.241 313.261,505.33 314.12,505.509 C314.513,505.581 315.89,505.974 318.251,506.69 C318.752,506.869 319.101,507.119 319.298,507.441 C319.494,507.763 319.593,508.139 319.593,508.568 L319.485,509.856 L319.378,530.675 L321.256,530.675 C321.65,530.675 322.159,530.496 322.785,530.139 C323.411,529.781 324.064,529.405 324.744,529.012 L327.212,528.958 C328.178,528.958 328.902,529.056 329.385,529.253 C329.868,529.45 330.11,529.888 330.11,530.568"/>
<path class="Lyrics" d="M1123.82,575.395 L1123.6,600.561 C1123.6,603.172 1123.41,605.274 1123.01,606.866 C1122.62,608.458 1122.06,609.254 1121.35,609.254 C1120.92,609.254 1120.64,608.61 1120.52,607.322 C1120.39,606.034 1120.33,604.585 1120.33,602.976 L1120.17,575.878 C1120.17,575.413 1119.49,574.832 1118.13,574.134 C1116.77,573.437 1115.37,572.712 1113.94,571.961 C1113.94,571.782 1114.16,571.612 1114.59,571.451 C1115.02,571.29 1115.36,571.21 1115.61,571.21 C1117.15,571.21 1118.74,571.407 1120.38,571.8 C1122.78,572.372 1123.98,573.195 1123.98,574.268 L1123.82,575.395 M1113.46,601.366 L1113.25,601.42 C1112.75,601.42 1111.42,600.418 1109.28,598.415 C1106.91,596.233 1104.55,594.05 1102.19,591.868 C1101.05,592.87 1100.12,593.675 1099.4,594.283 C1097.11,596.25 1095.29,597.699 1093.93,598.629 C1090.6,600.883 1088.51,602.278 1087.65,602.815 C1085.43,604.174 1083.93,604.854 1083.14,604.854 L1082.66,604.639 C1082.66,604.496 1083.29,603.995 1084.54,603.137 C1087.51,601.133 1089.14,600.024 1089.42,599.81 C1091.5,598.307 1093.6,596.581 1095.73,594.632 C1097.86,592.682 1099.74,590.634 1101.39,588.488 C1102.46,587.057 1103.52,585.465 1104.55,583.712 C1104.88,583.104 1105.22,582.478 1105.57,581.834 L1099.72,582.102 L1093.5,582.693 C1093.29,582.8 1093.03,582.916 1092.75,583.042 C1092.46,583.167 1092.16,583.229 1091.84,583.229 C1091.3,583.229 1090.22,582.818 1088.59,581.995 C1086.96,581.172 1086.15,580.582 1086.15,580.224 C1086.15,580.081 1086.29,580.01 1086.58,580.01 C1087.54,580.01 1088.42,580.046 1089.21,580.117 C1091.93,580.368 1093.37,580.493 1093.55,580.493 C1096.24,580.493 1098.79,580.439 1101.2,580.332 C1103.61,580.224 1104.88,580.117 1104.98,580.01 C1105.09,580.01 1105.34,579.938 1105.73,579.795 C1106.7,579.437 1107.2,579.259 1107.24,579.259 C1107.63,579.259 1108.32,579.509 1109.3,580.01 C1110.29,580.511 1110.78,580.922 1110.78,581.244 C1110.78,581.387 1110.55,581.602 1110.08,581.888 C1109.83,582.031 1109.67,582.156 1109.6,582.263 C1109.13,583.015 1108.76,583.605 1108.47,584.034 C1107.61,585.358 1106.84,586.431 1106.16,587.254 C1105.77,587.755 1105.19,588.425 1104.42,589.266 C1103.65,590.107 1103.27,590.563 1103.27,590.634 L1106.06,592.995 C1106.49,593.353 1107.03,593.675 1107.69,593.961 C1108.35,594.247 1109.06,594.533 1109.81,594.82 C1110.99,595.678 1111.98,596.653 1112.76,597.744 C1113.55,598.835 1113.94,599.738 1113.94,600.454 C1113.94,600.883 1113.78,601.187 1113.46,601.366 M1128.43,617.678 C1128.43,618.429 1127.95,618.948 1126.98,619.234 C1126.37,619.413 1125.46,619.502 1124.25,619.502 C1123.82,619.502 1123.53,619.502 1123.39,619.502 C1120.38,619.502 1117.38,619.529 1114.37,619.583 C1111.37,619.637 1108.63,619.699 1106.16,619.771 L1104.66,619.771 C1103.37,619.771 1102.3,619.467 1101.44,618.859 C1100.44,618.143 1099.94,617.159 1099.94,615.907 L1099.89,608.932 C1099.89,608.502 1098.99,608.091 1097.2,607.698 C1095.41,607.304 1094.52,606.964 1094.52,606.678 C1094.52,606.428 1094.78,606.195 1095.3,605.981 C1095.82,605.766 1096.22,605.659 1096.5,605.659 L1098.81,605.605 C1100.64,605.605 1101.87,605.721 1102.51,605.954 C1103.16,606.186 1103.48,606.535 1103.48,607 C1103.48,607.25 1103.46,607.465 1103.43,607.644 C1103.43,607.715 1103.39,607.823 1103.32,607.966 L1103.32,616.766 C1103.32,617.267 1103.47,617.624 1103.78,617.839 C1104.08,618.054 1104.5,618.161 1105.04,618.161 L1110.89,618.107 C1112.42,618.107 1113.71,618.089 1114.75,618.054 C1115.79,618.018 1116.59,617.964 1117.16,617.893 C1117.56,617.893 1118.34,617.615 1119.52,617.061 C1120.7,616.507 1121.37,616.229 1121.51,616.229 L1123.82,616.176 C1125.14,616.176 1126.24,616.283 1127.12,616.498 C1127.99,616.712 1128.43,617.106 1128.43,617.678"/>
<path class="Lyrics" d="M1423.31,518.763 L1423.31,519.031 C1423.31,519.353 1423.21,519.711 1422.99,520.104 C1422.78,520.498 1422.65,520.766 1422.62,520.909 L1420.58,533.841 C1420.83,533.841 1421.02,533.859 1421.17,533.895 C1422.06,534.109 1422.54,534.539 1422.62,535.183 C1422.62,535.612 1422.39,535.907 1421.94,536.068 C1421.5,536.229 1420.92,536.309 1420.2,536.309 L1418.59,536.256 C1416.44,536.256 1413.73,536.345 1410.43,536.524 C1409.36,536.56 1407.93,536.649 1406.14,536.792 C1406.14,537.794 1405.95,538.652 1405.58,539.368 C1405.2,540.083 1404.71,540.441 1404.1,540.441 C1403.71,540.441 1403.39,539.976 1403.14,539.046 C1403.07,538.76 1402.98,538.277 1402.87,537.597 L1401.74,521.446 C1401.74,520.874 1401.29,520.373 1400.37,519.943 C1399.46,519.514 1398.54,519.067 1397.61,518.602 C1397.61,518.244 1397.94,518.003 1398.6,517.878 C1399.26,517.752 1399.86,517.69 1400.4,517.69 C1400.94,517.69 1401.58,517.743 1402.33,517.851 C1404.05,518.101 1405.12,518.226 1405.55,518.226 C1406.98,518.226 1409.21,518.182 1412.23,518.092 C1415.25,518.003 1416.86,517.922 1417.03,517.851 C1417.32,517.851 1417.66,517.77 1418.05,517.609 C1418.45,517.448 1418.86,517.278 1419.29,517.1 C1419.75,517.1 1420.53,517.296 1421.62,517.69 C1422.71,518.083 1423.28,518.441 1423.31,518.763 M1446.55,531.319 C1446.55,531.891 1446.29,532.276 1445.77,532.473 C1445.25,532.67 1444.53,532.768 1443.6,532.768 L1440.22,532.714 C1438.89,532.714 1437.62,532.768 1436.41,532.875 C1436.19,532.875 1435.9,532.911 1435.55,532.983 L1435.44,547.631 C1435.44,550.636 1435.22,552.809 1434.8,554.151 C1434.37,555.492 1433.78,556.163 1433.02,556.163 C1432.77,556.163 1432.57,555.6 1432.41,554.473 C1432.25,553.346 1432.17,552.121 1432.17,550.797 L1431.95,510.553 C1431.95,509.874 1430.83,508.997 1428.6,507.924 C1426.36,506.851 1425.24,506.207 1425.24,505.992 C1425.24,505.742 1425.49,505.554 1425.97,505.429 C1426.45,505.304 1426.85,505.241 1427.18,505.241 C1428.68,505.241 1430.38,505.545 1432.27,506.153 C1434.6,506.904 1435.76,507.781 1435.76,508.783 C1435.76,508.997 1435.73,509.355 1435.65,509.856 C1435.58,510.356 1435.55,510.75 1435.55,511.036 L1435.55,531.051 L1437.26,530.836 C1437.66,530.8 1438.68,530.425 1440.32,529.709 C1441.15,529.352 1441.97,529.173 1442.79,529.173 C1443.9,529.173 1444.8,529.325 1445.5,529.629 C1446.2,529.933 1446.55,530.496 1446.55,531.319 M1418.81,519.568 L1405.55,519.943 L1405.93,535.022 L1418.22,534.378 C1418.36,533.519 1418.45,532.786 1418.48,532.178 C1418.66,530.353 1418.75,528.511 1418.75,526.651 L1418.81,519.568 "/>
<path class="Lyrics" d="M1432.69,581.137 L1432.69,581.727 C1432.69,584.41 1431.55,586.628 1429.26,588.381 C1427.18,589.99 1424.77,590.795 1422.01,590.795 C1418.79,590.795 1416.06,589.847 1413.8,587.951 C1411.55,586.055 1410.42,583.837 1410.42,581.298 L1410.42,580.922 C1410.42,577.631 1412.03,575.252 1415.25,573.785 C1416.32,573.32 1417.95,572.909 1420.13,572.551 C1420.46,572.337 1420.62,572.05 1420.62,571.693 L1420.46,570.834 C1420.46,570.584 1420.64,570.459 1420.99,570.459 C1421.46,570.459 1421.97,570.646 1422.52,571.022 C1423.08,571.398 1423.35,571.818 1423.35,572.283 L1423.3,572.605 C1425.38,573.07 1426.93,573.571 1427.97,574.107 C1431.12,575.717 1432.69,578.06 1432.69,581.137 M1443.58,596.376 L1439.02,596.215 C1438.88,596.215 1436.59,596.268 1432.15,596.376 C1427.72,596.483 1424,596.537 1420.99,596.537 C1417.13,596.537 1414.18,596.608 1412.14,596.751 C1410.1,596.894 1408.46,597.127 1407.2,597.449 C1406.99,597.449 1406.62,597.619 1406.1,597.959 C1405.58,598.298 1405.15,598.468 1404.79,598.468 C1404.07,598.468 1402.62,597.994 1400.44,597.046 C1398.26,596.098 1397.17,595.428 1397.17,595.034 C1397.17,594.82 1397.44,594.712 1397.97,594.712 C1399.51,594.82 1401.07,594.918 1402.64,595.007 C1404.22,595.097 1405.54,595.142 1406.61,595.142 C1408.08,595.142 1411.88,595.052 1418.02,594.873 C1424.15,594.694 1427.95,594.569 1429.42,594.498 C1433.96,594.319 1436.36,594.158 1436.61,594.015 C1436.89,594.015 1437.58,593.773 1438.67,593.29 C1439.76,592.807 1440.35,592.566 1440.42,592.566 C1442.42,592.566 1444.01,592.763 1445.19,593.156 C1446.37,593.55 1446.96,594.104 1446.96,594.82 C1446.93,595.392 1446.62,595.794 1446.02,596.027 C1445.43,596.259 1444.62,596.376 1443.58,596.376 M1438.86,617.624 C1438.68,618.519 1436.29,618.966 1431.67,618.966 C1429.35,618.966 1426.86,619.002 1424.21,619.073 C1421.57,619.145 1418.99,619.234 1416.49,619.342 L1416.16,619.342 C1414.77,619.342 1413.71,619.127 1413,618.698 C1412.07,618.125 1411.6,617.195 1411.6,615.907 L1411.55,612.42 C1411.55,612.098 1410.82,611.776 1409.35,611.454 C1407.88,611.132 1407.15,610.881 1407.15,610.702 C1407.15,610.273 1407.45,609.996 1408.06,609.871 C1408.67,609.746 1409.37,609.683 1410.15,609.683 L1410.69,609.683 C1412.05,609.683 1413.09,609.737 1413.8,609.844 C1414.27,609.987 1414.73,610.112 1415.2,610.22 C1416.27,610.148 1417.51,610.076 1418.9,610.005 C1420.3,609.933 1421.83,609.898 1423.52,609.898 L1430.6,609.361 L1430.81,603.459 L1415.14,604.424 C1414.97,604.424 1414.73,604.496 1414.45,604.639 C1413.7,604.997 1413.14,605.176 1412.78,605.176 C1412.25,605.176 1411.18,604.809 1409.59,604.076 C1408,603.342 1407.2,602.815 1407.2,602.493 C1407.2,602.314 1407.47,602.224 1408.01,602.224 C1408.37,602.224 1409.29,602.269 1410.77,602.359 C1412.26,602.448 1413.43,602.493 1414.29,602.493 C1417.4,602.493 1420.74,602.421 1424.32,602.278 C1427.9,602.135 1429.76,602.01 1429.9,601.902 L1431.46,601.044 C1432.06,601.115 1432.85,601.312 1433.82,601.634 C1434.78,601.956 1435.27,602.26 1435.27,602.546 C1435.27,602.833 1435.11,603.128 1434.81,603.432 C1434.51,603.736 1434.35,603.906 1434.35,603.942 L1433.01,609.254 C1433.44,609.254 1433.85,609.298 1434.25,609.388 C1434.64,609.477 1434.84,609.755 1434.84,610.22 C1434.84,610.613 1434.64,610.881 1434.25,611.024 C1433.85,611.168 1433.33,611.239 1432.69,611.239 L1422.55,611.615 L1415.04,611.776 L1415.04,616.605 C1415.04,617.07 1415.43,617.392 1416.22,617.571 C1416.58,617.642 1417.04,617.678 1417.61,617.678 L1429.26,617.356 C1429.76,617.356 1430.47,617.088 1431.4,616.551 C1431.87,616.265 1432.35,615.979 1432.85,615.693 L1434.46,615.693 C1435.82,615.693 1436.89,615.791 1437.68,615.988 C1438.47,616.185 1438.86,616.641 1438.86,617.356 L1438.86,617.624 M1422.98,574.107 C1422.84,574.286 1422.71,574.429 1422.6,574.537 C1422.21,574.894 1421.8,575.109 1421.37,575.181 C1419.12,575.61 1417.49,576.146 1416.49,576.79 C1414.88,577.792 1414.07,579.241 1414.07,581.137 C1414.07,583.104 1414.97,584.75 1416.75,586.073 C1418.36,587.289 1420.13,587.898 1422.07,587.898 C1424,587.898 1425.74,587.245 1427.3,585.939 C1428.85,584.633 1429.63,583.033 1429.63,581.137 C1429.63,578.955 1428.52,577.13 1426.31,575.663 C1425.59,575.198 1424.48,574.68 1422.98,574.107"/>
<path class="Lyrics" d="M1117.63,524.451 C1117.63,524.844 1115.97,525.81 1112.64,527.348 C1108.99,529.03 1105.52,530.371 1102.23,531.373 C1100.16,532.017 1097.85,532.607 1095.31,533.143 C1092.2,533.823 1090.29,534.163 1089.57,534.163 C1088.96,534.163 1088.41,533.868 1087.91,533.278 C1087.41,532.687 1086.99,531.927 1086.67,530.997 C1086.71,530.604 1086.74,530.058 1086.78,529.361 C1086.82,528.663 1086.83,528.225 1086.83,528.046 L1086.57,518.226 C1086.57,517.583 1085.97,517.01 1084.79,516.509 C1083.4,516.009 1082,515.508 1080.61,515.007 C1080.61,514.148 1081.65,513.719 1083.72,513.719 C1084.87,513.826 1086.03,513.916 1087.21,513.987 C1089,514.202 1089.98,514.542 1090.16,515.007 C1090.23,515.15 1090.27,515.383 1090.27,515.704 C1090.27,516.026 1090.29,516.295 1090.32,516.509 L1090.32,530.407 C1091.97,530.407 1093.65,530.317 1095.37,530.139 C1097.08,529.96 1099.17,529.584 1101.64,529.012 C1105.01,528.225 1107.99,527.384 1110.6,526.49 C1112.79,525.739 1114.99,524.987 1117.2,524.236 C1117.45,524.236 1117.6,524.308 1117.63,524.451 M1130.46,525.631 C1130.35,526.239 1129.77,526.633 1128.71,526.812 C1127.66,526.991 1126.42,527.08 1124.98,527.08 L1119.24,527.348 L1119.24,536.578 C1119.24,538.116 1119.06,539.672 1118.71,541.246 C1118.35,542.82 1117.87,543.607 1117.26,543.607 C1116.69,543.607 1116.33,542.766 1116.18,541.085 C1116.04,539.404 1115.97,538.17 1115.97,537.383 L1115.76,510.231 C1115.76,509.552 1115,508.881 1113.47,508.219 C1111.95,507.557 1110.41,506.869 1108.83,506.153 C1108.87,505.796 1109.07,505.536 1109.42,505.375 C1109.78,505.214 1110.25,505.134 1110.82,505.134 C1111.28,505.134 1111.72,505.161 1112.13,505.214 C1112.54,505.268 1113.14,505.366 1113.93,505.509 C1116.58,505.939 1118.03,506.225 1118.28,506.368 C1119.03,506.797 1119.4,507.495 1119.4,508.461 L1119.3,510.875 L1119.14,525.417 L1121.39,525.309 C1121.85,525.309 1122.55,525.041 1123.48,524.504 C1124.41,523.968 1124.98,523.7 1125.2,523.7 L1126.76,523.646 C1127.9,523.646 1128.8,523.78 1129.47,524.048 C1130.13,524.317 1130.46,524.844 1130.46,525.631 M1125.04,551.173 C1124.97,551.817 1124.54,552.21 1123.75,552.353 C1122.96,552.496 1122.19,552.568 1121.44,552.568 L1116.35,552.568 C1114.88,552.568 1112.56,552.586 1109.4,552.622 C1106.23,552.657 1103.2,552.711 1100.3,552.783 C1098.58,552.783 1097.39,552.371 1096.71,551.548 C1096.03,550.726 1095.69,549.438 1095.69,547.685 L1095.58,541.622 C1095.58,541.156 1095.03,540.736 1093.94,540.361 C1092.85,539.985 1091.72,539.6 1090.54,539.207 C1090.54,538.384 1091.56,537.973 1093.59,537.973 L1095.96,537.919 C1097.03,537.919 1097.86,538.053 1098.45,538.322 C1099.04,538.59 1099.34,539.153 1099.34,540.012 L1099.23,542.856 L1099.28,548.222 C1099.28,549.366 1099.46,550.117 1099.82,550.475 C1100.18,550.833 1100.93,551.012 1102.07,551.012 L1115.38,550.69 C1115.88,550.69 1116.69,550.43 1117.79,549.912 C1118.9,549.393 1119.6,549.134 1119.89,549.134 C1122,549.134 1123.38,549.259 1124.05,549.509 C1124.71,549.76 1125.04,550.314 1125.04,551.173"/>
<path class="Lyrics" d="M508.053,523.592 C508.053,524.701 507.32,525.345 505.853,525.524 C505.245,525.596 504.44,525.631 503.439,525.631 L496.946,525.953 L496.892,528.743 C496.892,531.391 496.803,533.251 496.624,534.324 C496.302,536.327 495.64,537.329 494.639,537.329 C494.317,537.329 494.075,536.596 493.914,535.129 C493.753,533.662 493.673,532.16 493.673,530.622 L493.566,510.607 C493.566,509.82 492.85,509.033 491.419,508.246 C489.988,507.459 488.54,506.654 487.073,505.831 C487.216,505.402 487.788,505.187 488.79,505.187 C490.149,505.187 491.777,505.42 493.673,505.885 C496.07,506.493 497.268,507.209 497.268,508.031 C497.268,508.21 497.223,508.586 497.134,509.158 C497.044,509.73 497,510.124 497,510.339 L496.946,524.022 L499.468,523.861 C499.754,523.861 500.344,523.592 501.239,523.056 C502.133,522.519 503.242,522.251 504.566,522.251 C505.603,522.251 506.426,522.34 507.034,522.519 C507.642,522.698 507.982,523.056 508.053,523.592 M495.336,526.383 C495.336,526.776 494.057,527.59 491.5,528.824 C488.942,530.058 486.196,531.149 483.263,532.097 C480.33,533.045 477.388,533.886 474.436,534.619 C471.485,535.352 469.133,535.791 467.38,535.934 C466.486,535.934 465.833,535.567 465.422,534.834 C465.01,534.1 464.805,533.036 464.805,531.641 L464.644,524.451 C464.644,523.95 464.018,523.449 462.766,522.948 C461.514,522.448 460.888,522.09 460.888,521.875 C460.923,521.625 461.156,521.437 461.585,521.312 C462.014,521.187 462.569,521.124 463.249,521.124 C464.036,521.124 464.93,521.231 465.931,521.446 C468.292,521.947 469.813,522.197 470.492,522.197 L473.819,522.036 L479.078,521.553 C479.185,521.017 479.283,520.409 479.373,519.729 C479.462,519.049 479.507,518.226 479.507,517.261 L479.561,515.973 L479.453,513.612 C478.166,513.612 476.314,513.746 473.9,514.014 C471.485,514.283 469.795,514.417 468.829,514.417 C468.757,514.417 468.525,514.533 468.131,514.765 C467.738,514.998 467.362,515.114 467.005,515.114 C466.504,515.114 465.52,514.73 464.053,513.961 C462.587,513.191 461.853,512.628 461.853,512.27 C461.853,512.056 462.122,511.948 462.658,511.948 C462.98,511.948 463.803,512.029 465.127,512.19 C466.45,512.351 467.452,512.431 468.131,512.431 C470.349,512.431 472.326,512.396 474.061,512.324 C475.796,512.252 477.307,512.181 478.595,512.109 C478.738,512.109 479.06,511.993 479.561,511.761 C480.062,511.528 480.33,511.412 480.366,511.412 C480.759,511.412 481.528,511.573 482.673,511.895 C483.818,512.217 484.426,512.521 484.497,512.807 C484.497,513.129 484.292,513.46 483.88,513.8 C483.469,514.139 483.245,514.381 483.209,514.524 L481.546,521.178 C481.975,521.213 482.387,521.276 482.78,521.365 C483.174,521.455 483.424,521.732 483.531,522.197 C483.531,522.662 483.29,522.984 482.807,523.163 C482.324,523.342 481.779,523.431 481.17,523.431 L468.292,524.022 L468.292,530.89 C468.292,531.534 468.328,531.927 468.4,532.07 C468.543,532.356 468.901,532.5 469.473,532.5 C471.011,532.5 473.283,532.231 476.288,531.695 C478.434,531.301 480.589,530.845 482.753,530.326 C484.918,529.808 487.073,529.155 489.219,528.368 C493.047,526.973 495.014,526.275 495.122,526.275 L495.336,526.383 M495.927,545.324 C495.927,548.508 494.907,550.958 492.868,552.675 C491.044,554.213 488.736,554.983 485.946,554.983 C483.12,554.983 480.688,554.231 478.649,552.729 C476.431,551.083 475.322,548.937 475.322,546.29 C475.322,542.784 476.896,540.244 480.044,538.67 C481.081,538.17 482.673,537.722 484.819,537.329 C484.891,537.257 484.962,537.078 485.034,536.792 C485.034,536.649 484.98,536.452 484.873,536.202 C484.766,535.952 484.712,535.773 484.712,535.665 C484.855,535.487 484.962,535.397 485.034,535.397 C485.642,535.397 486.17,535.567 486.617,535.907 C487.064,536.247 487.395,536.631 487.609,537.061 C487.645,537.132 487.681,537.257 487.717,537.436 C489.541,537.901 490.901,538.384 491.795,538.885 C494.549,540.423 495.927,542.57 495.927,545.324 M493.136,545.217 C493.136,543.428 492.582,541.979 491.473,540.87 C490.149,539.511 488.808,538.831 487.449,538.831 C487.377,539.01 485.901,539.583 483.022,540.548 C480.142,541.514 478.702,543.446 478.702,546.343 C478.702,548.132 479.471,549.617 481.009,550.797 C482.405,551.87 484.086,552.407 486.053,552.407 C488.021,552.407 489.649,551.835 490.936,550.69 C492.403,549.402 493.136,547.578 493.136,545.217"/>
<path class="Lyrics" d="M1035.96,595.785 C1035.96,596.572 1035.78,597.127 1035.42,597.449 C1035.2,597.628 1034.88,597.717 1034.45,597.717 L1024.85,597.932 L1024.74,612.581 C1024.74,615.943 1024.55,618.42 1024.18,620.012 C1023.8,621.604 1023.27,622.4 1022.59,622.4 C1022.27,622.4 1022.01,621.971 1021.82,621.112 C1021.62,620.254 1021.52,618.572 1021.52,616.068 L1021.25,576.146 C1021.25,575.502 1020.64,574.823 1019.43,574.107 C1018.07,573.392 1016.71,572.676 1015.35,571.961 C1015.46,571.46 1016.39,571.21 1018.14,571.21 C1019.61,571.389 1020.98,571.675 1022.27,572.068 C1024.06,572.605 1025.04,573.106 1025.22,573.571 C1025.22,574.107 1025.16,574.85 1025.04,575.798 C1024.91,576.746 1024.85,577.237 1024.85,577.273 L1024.85,596.215 L1028.17,596 C1028.39,596 1029.19,595.678 1030.59,595.034 C1031.31,594.712 1032,594.551 1032.68,594.551 C1033.54,594.551 1034.28,594.641 1034.91,594.82 C1035.54,594.998 1035.88,595.32 1035.96,595.785 M1012.72,583.122 C1012.72,583.265 1012.54,583.515 1012.18,583.873 C1011.83,584.231 1011.63,584.428 1011.59,584.463 C1011.34,585.179 1011.09,585.876 1010.84,586.556 C1010.02,588.559 1009.09,590.402 1008.05,592.083 C1006.59,594.48 1004.74,596.966 1002.53,599.542 C1000.06,602.403 997.464,605.015 994.746,607.376 C991.598,610.13 988.951,612.026 986.804,613.063 C986.697,613.135 986.554,613.189 986.375,613.224 C986.339,613.224 986.25,613.242 986.107,613.278 L985.838,613.063 L986.16,612.581 C988.342,610.756 990.542,608.735 992.76,606.517 C995.193,604.085 997.429,601.563 999.468,598.951 C1001.36,596.555 1003.06,593.961 1004.57,591.171 C1005.6,589.275 1006.44,587.468 1007.09,585.751 C1007.3,585.072 1007.53,584.392 1007.78,583.712 C1006.32,583.712 1004.83,583.766 1003.33,583.873 C998.86,584.195 996.373,584.356 995.873,584.356 C995.801,584.356 995.479,584.49 994.907,584.759 C994.334,585.027 993.762,585.161 993.19,585.161 C991.938,584.839 990.748,584.392 989.621,583.82 C988.494,583.247 987.931,582.746 987.931,582.317 C987.967,582.174 988.11,582.102 988.36,582.102 C988.539,582.102 988.87,582.147 989.353,582.237 C989.836,582.326 990.301,582.398 990.748,582.451 C991.195,582.505 991.911,582.55 992.894,582.585 C993.878,582.621 994.817,582.639 995.712,582.639 C996.999,582.639 999.181,582.55 1002.26,582.371 C1003.33,582.335 1004.87,582.228 1006.87,582.049 C1006.98,582.049 1007.28,581.942 1007.78,581.727 C1008.29,581.512 1008.64,581.387 1008.86,581.351 C1009.39,581.351 1010.31,581.655 1011.59,582.263 C1012.35,582.621 1012.72,582.907 1012.72,583.122"/>
<path class="Lyrics" d="M1527.45,516.295 L1527.5,516.939 C1527.5,519.622 1526.34,521.822 1524.02,523.539 C1521.9,525.113 1519.47,525.9 1516.72,525.9 C1513.28,525.9 1510.5,525.014 1508.37,523.243 C1506.25,521.473 1505.18,519.3 1505.18,516.724 L1505.18,516.295 C1505.18,513.004 1506.81,510.517 1510.06,508.836 C1511.14,508.3 1512.76,507.781 1514.95,507.28 C1515.02,507.209 1515.09,507.101 1515.16,506.958 C1515.16,506.922 1515.18,506.851 1515.22,506.743 C1515.22,506.529 1515.13,506.278 1514.97,505.992 C1514.81,505.706 1514.73,505.545 1514.73,505.509 C1514.73,505.402 1514.82,505.313 1515,505.241 C1515.04,505.241 1515.09,505.223 1515.16,505.187 C1515.63,505.187 1516.2,505.429 1516.88,505.912 C1517.56,506.395 1517.9,506.851 1517.9,507.28 C1519.9,507.924 1521.4,508.55 1522.41,509.158 C1525.48,511.018 1527.16,513.397 1527.45,516.295 M1541.72,530.514 C1541.72,531.122 1541.43,531.543 1540.84,531.775 C1540.25,532.008 1539.38,532.124 1538.23,532.124 C1536.98,532.124 1535.31,532.079 1533.22,531.99 C1531.12,531.9 1529.86,531.856 1529.43,531.856 C1528.11,531.856 1526.35,531.883 1524.15,531.936 C1521.95,531.99 1519.54,532.035 1516.93,532.07 C1512.75,532.07 1509.48,532.151 1507.14,532.312 C1504.8,532.473 1503.03,532.696 1501.85,532.983 C1501.64,532.983 1501.21,533.143 1500.57,533.465 C1499.92,533.787 1499.39,533.948 1498.96,533.948 C1498.31,533.948 1496.94,533.474 1494.85,532.526 C1492.76,531.578 1491.71,530.872 1491.71,530.407 C1491.71,530.192 1491.89,530.085 1492.25,530.085 C1493.5,530.264 1494.98,530.416 1496.68,530.541 C1498.38,530.666 1500.14,530.729 1501.96,530.729 L1506.36,530.783 C1508.54,530.783 1512.94,530.648 1519.56,530.38 C1526.18,530.112 1529.69,529.888 1530.08,529.709 C1530.9,529.709 1531.76,529.53 1532.65,529.173 C1533.12,528.994 1533.6,528.797 1534.1,528.583 C1536.68,528.583 1538.4,528.654 1539.25,528.797 C1540.9,529.083 1541.72,529.656 1541.72,530.514 M1529.81,539.261 C1529.81,539.511 1529.58,539.869 1529.11,540.334 C1528.86,540.584 1528.74,540.763 1528.74,540.87 C1528.7,540.906 1528.62,541.344 1528.5,542.185 C1528.37,543.026 1528.16,544.197 1527.88,545.7 L1526.97,550.422 C1527.57,550.422 1528.17,550.466 1528.76,550.556 C1529.35,550.645 1529.65,550.94 1529.65,551.441 C1529.65,551.87 1529.46,552.156 1529.09,552.3 C1528.71,552.443 1528.15,552.514 1527.4,552.514 L1509.1,552.89 C1509.1,553.605 1508.95,554.303 1508.67,554.983 C1508.38,555.662 1507.95,556.002 1507.38,556.002 C1507.02,556.002 1506.72,555.394 1506.47,554.178 C1506.4,553.784 1506.31,553.176 1506.2,552.353 L1505.23,541.139 C1505.16,540.674 1504.46,540.155 1503.12,539.583 C1501.77,539.01 1501.1,538.635 1501.1,538.456 C1501.1,538.17 1501.33,537.964 1501.77,537.839 C1502.22,537.713 1502.62,537.651 1502.98,537.651 L1503.2,537.651 C1504.84,537.651 1506.22,537.794 1507.33,538.08 C1507.69,538.152 1508.08,538.295 1508.51,538.509 L1518.11,538.456 C1519.04,538.456 1520.03,538.42 1521.06,538.348 C1522.1,538.277 1522.89,538.214 1523.42,538.161 C1523.96,538.107 1524.44,537.955 1524.85,537.704 C1525.26,537.454 1525.52,537.329 1525.62,537.329 C1525.95,537.329 1526.72,537.588 1527.93,538.107 C1529.15,538.626 1529.77,539.01 1529.81,539.261 M1517.79,508.836 C1517.61,509.015 1517.45,509.176 1517.31,509.319 C1516.99,509.641 1516.61,509.838 1516.18,509.909 C1514.18,510.267 1512.51,510.929 1511.19,511.895 C1509.55,513.111 1508.72,514.631 1508.72,516.456 C1508.72,518.459 1509.45,520.078 1510.9,521.312 C1512.34,522.546 1514.2,523.163 1516.45,523.163 C1518.49,523.163 1520.29,522.626 1521.87,521.553 C1523.66,520.337 1524.55,518.745 1524.55,516.778 C1524.55,514.524 1523.42,512.521 1521.17,510.768 C1520.42,510.196 1519.29,509.552 1517.79,508.836 M1525.25,539.904 L1508.88,540.226 L1509.15,551.173 L1517.79,551.012 L1524.87,550.636 L1525.25,539.904 "/>
<path class="Lyrics" d="M1529.5,597.127 C1529.5,597.771 1527.45,598.898 1523.33,600.507 C1519.9,601.831 1515.78,603.181 1510.99,604.559 C1506.2,605.936 1503.1,606.624 1501.71,606.624 C1500.81,606.624 1500.02,606.392 1499.32,605.927 C1498.62,605.462 1498.27,604.746 1498.27,603.781 L1497.74,586.288 C1497.74,585.572 1496.77,584.928 1494.84,584.356 C1492.91,583.784 1491.94,583.39 1491.94,583.176 C1491.94,582.818 1492.23,582.532 1492.8,582.317 C1493.37,582.102 1494.07,581.995 1494.89,581.995 C1496.22,582.102 1497.56,582.21 1498.92,582.317 C1500.78,582.639 1501.71,583.319 1501.71,584.356 L1501.87,602.922 C1503.19,602.922 1504.86,602.815 1506.86,602.6 C1508.86,602.385 1511.1,601.992 1513.57,601.42 C1516.89,600.668 1520.97,599.488 1525.8,597.878 C1527.62,597.27 1528.73,596.966 1529.13,596.966 C1529.23,596.966 1529.32,596.984 1529.4,597.02 C1529.43,597.055 1529.47,597.091 1529.5,597.127 M1541.52,596.483 C1541.41,597.163 1540.32,597.592 1538.25,597.771 C1537.35,597.842 1536.41,597.878 1535.4,597.878 L1530.63,598.039 L1530.47,615.8 C1530.47,617.338 1530.27,618.778 1529.88,620.12 C1529.48,621.461 1529.02,622.132 1528.48,622.132 C1527.95,622.132 1527.63,621.524 1527.54,620.307 C1527.45,619.091 1527.41,617.982 1527.41,616.981 L1527.09,576.146 C1527.09,575.574 1526.34,574.957 1524.83,574.295 C1523.33,573.633 1521.79,572.945 1520.22,572.229 C1520.33,571.836 1520.62,571.568 1521.1,571.424 C1521.59,571.281 1522.24,571.21 1523.06,571.21 C1525.89,571.639 1527.45,571.889 1527.73,571.961 C1529.95,572.533 1531.06,573.338 1531.06,574.376 C1531.06,574.698 1531.01,575.234 1530.92,575.985 C1530.83,576.737 1530.79,577.22 1530.79,577.434 L1530.52,596.161 L1533.2,596.054 C1533.6,596.054 1534.21,595.785 1535.03,595.249 C1535.85,594.712 1536.39,594.444 1536.64,594.444 L1537.98,594.444 C1539.13,594.444 1540,594.56 1540.61,594.793 C1541.22,595.025 1541.52,595.589 1541.52,596.483"/>
<path class="Lyrics" d="M1035.96,529.817 C1035.96,530.604 1035.78,531.158 1035.42,531.48 C1035.2,531.659 1034.88,531.748 1034.45,531.748 L1024.85,531.963 L1024.74,546.612 C1024.74,549.974 1024.55,552.452 1024.18,554.043 C1023.8,555.635 1023.27,556.431 1022.59,556.431 C1022.27,556.431 1022.01,556.002 1021.82,555.143 C1021.62,554.285 1021.52,552.604 1021.52,550.1 L1021.25,510.178 C1021.25,509.534 1020.64,508.854 1019.43,508.139 C1018.07,507.423 1016.71,506.708 1015.35,505.992 C1015.46,505.491 1016.39,505.241 1018.14,505.241 C1019.61,505.42 1020.98,505.706 1022.27,506.1 C1024.06,506.636 1025.04,507.137 1025.22,507.602 C1025.22,508.139 1025.16,508.881 1025.04,509.829 C1024.91,510.777 1024.85,511.269 1024.85,511.304 L1024.85,530.246 L1028.17,530.031 C1028.39,530.031 1029.19,529.709 1030.59,529.065 C1031.31,528.743 1032,528.583 1032.68,528.583 C1033.54,528.583 1034.28,528.672 1034.91,528.851 C1035.54,529.03 1035.88,529.352 1035.96,529.817 M1012.72,517.153 C1012.72,517.296 1012.54,517.547 1012.18,517.904 C1011.83,518.262 1011.63,518.459 1011.59,518.495 C1011.34,519.21 1011.09,519.908 1010.84,520.587 C1010.02,522.591 1009.09,524.433 1008.05,526.114 C1006.59,528.511 1004.74,530.997 1002.53,533.573 C1000.06,536.435 997.464,539.046 994.746,541.407 C991.598,544.161 988.951,546.057 986.804,547.095 C986.697,547.166 986.554,547.22 986.375,547.256 C986.339,547.256 986.25,547.274 986.107,547.309 L985.838,547.095 L986.16,546.612 C988.342,544.787 990.542,542.766 992.76,540.548 C995.193,538.116 997.429,535.594 999.468,532.983 C1001.36,530.586 1003.06,527.992 1004.57,525.202 C1005.6,523.306 1006.44,521.5 1007.09,519.783 C1007.3,519.103 1007.53,518.423 1007.78,517.743 C1006.32,517.743 1004.83,517.797 1003.33,517.904 C998.86,518.226 996.373,518.387 995.873,518.387 C995.801,518.387 995.479,518.522 994.907,518.79 C994.334,519.058 993.762,519.192 993.19,519.192 C991.938,518.87 990.748,518.423 989.621,517.851 C988.494,517.278 987.931,516.778 987.931,516.348 C987.967,516.205 988.11,516.134 988.36,516.134 C988.539,516.134 988.87,516.178 989.353,516.268 C989.836,516.357 990.301,516.429 990.748,516.483 C991.195,516.536 991.911,516.581 992.894,516.617 C993.878,516.652 994.817,516.67 995.712,516.67 C996.999,516.67 999.181,516.581 1002.26,516.402 C1003.33,516.366 1004.87,516.259 1006.87,516.08 C1006.98,516.08 1007.28,515.973 1007.78,515.758 C1008.29,515.543 1008.64,515.418 1008.86,515.383 C1009.39,515.383 1010.31,515.687 1011.59,516.295 C1012.35,516.652 1012.72,516.939 1012.72,517.153"/>
<path class="Lyrics" d="M1622.88,524.343 C1622.88,527.384 1621.49,529.906 1618.7,531.909 C1616.19,533.698 1613.35,534.592 1610.16,534.592 C1606.94,534.592 1604.07,533.644 1601.53,531.748 C1598.77,529.674 1597.39,527.062 1597.39,523.914 C1597.39,520.766 1598.41,518.226 1600.45,516.295 C1601.85,514.971 1603.76,513.97 1606.19,513.29 C1607.62,512.896 1608.64,512.7 1609.25,512.7 C1609.54,512.413 1609.68,512.074 1609.68,511.68 C1609.68,511.465 1609.64,511.197 1609.55,510.875 C1609.46,510.553 1609.41,510.374 1609.41,510.339 C1609.41,510.088 1609.56,509.963 1609.84,509.963 C1610.41,509.963 1610.95,510.285 1611.45,510.929 C1611.95,511.573 1612.2,512.199 1612.2,512.807 C1614.56,512.807 1617,513.97 1619.5,516.295 C1621.75,518.405 1622.88,521.088 1622.88,524.343 M1636.46,545.109 C1636.46,545.646 1636.05,546.03 1635.22,546.263 C1634.4,546.496 1633.31,546.612 1631.95,546.612 L1625.4,546.451 C1624.12,546.451 1621.76,546.496 1618.35,546.585 C1614.93,546.674 1612.9,546.719 1612.26,546.719 C1607.5,546.719 1603.58,546.862 1600.51,547.148 C1598.79,547.291 1597.54,547.47 1596.75,547.685 C1596.5,547.685 1596.2,547.792 1595.84,548.007 C1595.01,548.508 1594.46,548.758 1594.17,548.758 C1593.46,548.758 1591.97,548.266 1589.69,547.283 C1587.42,546.299 1586.29,545.556 1586.29,545.056 C1586.29,544.805 1586.48,544.68 1586.88,544.68 C1588.27,544.859 1589.84,545.011 1591.57,545.136 C1593.31,545.261 1595.05,545.324 1596.8,545.324 L1598.2,545.324 C1599.49,545.324 1603.86,545.199 1611.32,544.948 C1618.78,544.698 1622.6,544.519 1622.77,544.412 C1623.38,544.412 1624.19,544.242 1625.19,543.902 C1626.19,543.562 1627.19,543.213 1628.19,542.856 C1630.81,542.856 1632.63,542.945 1633.67,543.124 C1635.53,543.446 1636.46,544.108 1636.46,545.109 M1619.82,524.826 L1619.88,523.753 C1619.88,520.641 1618.54,518.137 1615.85,516.241 C1614.96,515.633 1613.6,514.989 1611.77,514.309 C1611.63,514.631 1611.41,514.909 1611.1,515.141 C1610.8,515.374 1610.34,515.543 1609.74,515.651 C1607.34,516.152 1605.55,516.76 1604.37,517.475 C1602.08,518.906 1600.94,520.999 1600.94,523.753 C1600.94,526.186 1601.95,528.153 1603.99,529.656 C1605.82,531.015 1608,531.695 1610.54,531.695 C1612.76,531.695 1614.76,531.104 1616.55,529.924 C1618.52,528.636 1619.61,526.937 1619.82,524.826"/>
<path class="Lyrics" d="M1628.18,585.805 C1628.07,586.485 1627.28,586.86 1625.79,586.932 C1624.31,587.003 1622.44,587.039 1620.18,587.039 L1601.24,587.522 C1597.92,587.522 1596.25,585.948 1596.25,582.8 L1595.93,576.844 C1595.89,576.486 1595.32,576.137 1594.21,575.798 C1593.1,575.458 1591.98,575.091 1590.83,574.698 C1590.83,574.197 1591.13,573.866 1591.72,573.705 C1592.31,573.544 1593.12,573.463 1594.16,573.463 L1595.39,573.463 C1596.75,573.463 1597.84,573.58 1598.67,573.812 C1599.49,574.045 1599.9,574.572 1599.9,575.395 C1599.9,575.574 1599.86,575.985 1599.79,576.629 C1599.72,577.273 1599.69,577.828 1599.69,578.293 L1599.69,583.176 C1599.69,584.32 1599.85,585.027 1600.17,585.295 C1600.49,585.563 1601.17,585.698 1602.21,585.698 L1603.17,585.698 C1603.92,585.698 1605.33,585.671 1607.39,585.617 C1609.44,585.563 1611.15,585.519 1612.51,585.483 L1618.63,585.107 C1619.06,585.107 1619.74,584.875 1620.67,584.41 C1621.17,584.159 1621.67,583.909 1622.17,583.659 L1622.76,583.659 C1624.26,583.659 1625.54,583.775 1626.6,584.007 C1627.65,584.24 1628.18,584.75 1628.18,585.537 L1628.18,585.805 M1635.58,596.161 C1635.44,596.841 1634.4,597.181 1632.47,597.181 C1630.97,597.181 1629.51,597.163 1628.1,597.127 C1626.69,597.091 1625.33,597.055 1624.05,597.02 C1620.97,597.02 1618.72,597.037 1617.29,597.073 C1615.86,597.109 1614.6,597.181 1613.53,597.288 L1613.42,612.849 C1613.42,615.925 1613.23,618.179 1612.83,619.61 C1612.44,621.041 1611.87,621.756 1611.12,621.756 C1610.61,621.756 1610.29,620.933 1610.15,619.288 C1610.01,617.642 1609.93,616.086 1609.93,614.62 L1609.83,597.502 C1609.61,597.502 1608.77,597.538 1607.31,597.61 C1605.84,597.681 1604.57,597.717 1603.5,597.717 L1597.11,598.146 C1596.65,598.146 1596.22,598.236 1595.82,598.415 C1594.82,598.88 1594.23,599.112 1594.05,599.112 C1593.3,599.112 1591.97,598.674 1590.05,597.798 C1588.14,596.921 1587.18,596.233 1587.18,595.732 C1587.18,595.41 1587.4,595.249 1587.83,595.249 C1589.15,595.428 1590.55,595.598 1592.01,595.759 C1593.48,595.92 1594.87,596 1596.2,596 L1600.71,596 C1608.58,596 1616.48,595.589 1624.42,594.766 C1625.25,594.694 1626.03,594.551 1626.78,594.337 C1628.21,593.943 1628.98,593.746 1629.09,593.746 C1631.52,593.746 1633.21,593.916 1634.16,594.256 C1635.11,594.596 1635.58,595.231 1635.58,596.161"/>
<path class="Lyrics" d="M808.488,532.714 C807.379,533.501 805.25,534.556 802.102,535.88 C798.954,537.204 795.788,538.384 792.605,539.422 C789.85,540.28 787.328,540.942 785.039,541.407 C783.322,541.765 782.105,541.943 781.39,541.943 C781.032,541.943 780.514,541.505 779.834,540.629 C779.154,539.752 778.814,538.921 778.814,538.134 L778.224,519.836 C778.224,519.228 777.688,518.674 776.614,518.173 C775.362,517.743 774.128,517.296 772.912,516.831 C772.912,516.366 773.145,516.026 773.61,515.812 C774.075,515.597 774.701,515.49 775.488,515.49 C776.382,515.49 777.491,515.606 778.814,515.839 C780.138,516.071 781.497,516.313 782.892,516.563 C783.787,516.563 785.262,516.483 787.319,516.322 C789.376,516.161 790.53,516.026 790.78,515.919 C791.281,515.883 791.818,515.704 792.39,515.383 C793.642,514.703 794.304,514.363 794.375,514.363 L796.951,514.256 C798.096,514.256 799.017,514.381 799.714,514.631 C800.412,514.882 800.761,515.347 800.761,516.026 C800.761,516.599 800.242,517.01 799.205,517.261 C798.167,517.511 796.862,517.636 795.288,517.636 C794.358,517.887 792.542,518.056 789.841,518.146 C787.14,518.235 784.466,518.28 781.819,518.28 L782.088,535.343 C782.088,536.309 782.195,537.061 782.41,537.597 C782.624,538.134 783.125,538.402 783.912,538.402 C784.842,538.402 786.264,538.187 788.178,537.758 C790.092,537.329 792.363,536.756 794.992,536.041 C797.622,535.326 799.902,534.628 801.834,533.948 C804.052,533.161 806.27,532.374 808.488,531.587 L808.38,510.446 C808.38,509.623 807.218,508.747 804.892,507.817 C802.567,506.887 801.405,506.314 801.405,506.1 C801.405,505.42 802.12,505.08 803.551,505.08 C804.159,505.08 804.705,505.116 805.188,505.187 C805.671,505.259 806.377,505.393 807.307,505.59 C808.237,505.787 809.221,505.992 810.258,506.207 C811.475,506.636 812.083,507.37 812.083,508.407 L811.975,510.392 L811.814,530.407 L814.283,530.3 C814.64,530.3 815.41,529.978 816.59,529.334 C817.234,528.976 817.717,528.797 818.039,528.797 C819.756,528.797 820.999,528.931 821.768,529.2 C822.537,529.468 822.922,530.013 822.922,530.836 C822.85,531.194 822.582,531.462 822.117,531.641 C821.652,531.82 820.793,531.909 819.541,531.909 L811.814,532.178 L811.653,549.187 C811.653,550.761 811.475,552.389 811.117,554.07 C810.759,555.752 810.24,556.592 809.561,556.592 C809.167,556.592 808.908,555.948 808.783,554.661 C808.658,553.373 808.595,551.852 808.595,550.1 L808.488,532.714 "/>
<path class="Lyrics" d="M690.327,532.714 C687.644,534.109 683.154,535.773 676.858,537.704 C670.062,539.815 665.322,540.87 662.639,540.87 C661.888,540.87 661.289,540.629 660.841,540.146 C660.394,539.663 660.171,539.082 660.171,538.402 L659.849,519.836 C659.849,519.264 658.793,518.691 656.683,518.119 C654.572,517.547 653.517,517.135 653.517,516.885 C653.517,516.491 653.758,516.152 654.241,515.865 C654.724,515.579 655.502,515.436 656.576,515.436 L658.507,515.436 C659.616,515.508 660.743,515.561 661.888,515.597 C663.247,515.848 663.927,516.527 663.927,517.636 L663.766,520.426 L663.766,534.807 C663.766,535.665 663.855,536.229 664.034,536.497 C664.213,536.765 664.66,536.9 665.376,536.9 C668.989,536.9 673.022,536.247 677.476,534.941 C681.929,533.635 686.213,532.339 690.327,531.051 L690.273,510.178 C690.273,509.605 689.593,508.961 688.234,508.246 C686.732,507.53 685.229,506.815 683.727,506.1 C683.727,505.527 684.245,505.241 685.283,505.241 C686.642,505.241 688.306,505.527 690.273,506.1 C692.777,506.815 694.029,507.62 694.029,508.514 C694.029,508.586 693.984,508.961 693.895,509.641 C693.806,510.321 693.761,510.839 693.761,511.197 L693.654,548.919 C693.654,551.316 693.475,553.239 693.117,554.687 C692.759,556.136 692.223,556.861 691.507,556.861 C691.15,556.861 690.872,556.217 690.676,554.929 C690.479,553.641 690.38,552.3 690.38,550.904 L690.327,532.714 "/>
<path class="Lyrics" d="M1760.07,545.539 C1760.07,546.254 1759.81,546.746 1759.29,547.014 C1758.77,547.283 1758.01,547.417 1757.01,547.417 C1756.47,547.417 1755.56,547.363 1754.27,547.256 C1752.98,547.148 1752,547.095 1751.32,547.095 L1748.37,547.095 C1747.76,547.095 1746.03,547.13 1743.17,547.202 C1740.3,547.274 1737.76,547.309 1735.55,547.309 C1731.93,547.309 1728.34,547.506 1724.76,547.9 C1723.58,548.007 1722.15,548.204 1720.47,548.49 C1720.4,548.49 1720.14,548.615 1719.69,548.865 C1719.24,549.116 1718.82,549.241 1718.43,549.241 C1717.71,549.241 1716.29,548.749 1714.16,547.765 C1712.03,546.782 1710.97,546.093 1710.97,545.7 C1710.97,545.485 1711.2,545.378 1711.67,545.378 C1713.1,545.521 1714.64,545.673 1716.28,545.834 C1717.93,545.995 1719.25,546.075 1720.25,546.075 L1733.94,545.861 L1733.72,536.095 L1727.55,536.202 C1725.94,536.202 1724.74,536.023 1723.96,535.665 C1722.77,535.129 1722.18,534.145 1722.18,532.714 L1722.18,526.329 C1722.18,525.792 1721.4,525.309 1719.82,524.88 C1718.25,524.451 1717.46,524.093 1717.46,523.807 C1717.46,523.449 1717.78,523.217 1718.4,523.109 C1719.03,523.002 1719.68,522.948 1720.36,522.948 C1721,522.948 1721.95,523.056 1723.2,523.27 C1724.46,523.485 1725.3,523.592 1725.73,523.592 C1726.73,523.521 1727.57,523.485 1728.25,523.485 C1730.9,523.378 1732.9,523.324 1734.26,523.324 L1744.72,522.68 C1744.86,522.215 1744.95,521.822 1744.99,521.5 C1745.17,520.534 1745.26,519.639 1745.26,518.817 L1745.58,513.934 C1744.11,514.041 1742.45,514.139 1740.59,514.229 C1738.73,514.318 1736.82,514.363 1734.85,514.363 L1726.53,515.007 C1726.46,515.007 1726.21,515.141 1725.78,515.409 C1725.35,515.678 1724.9,515.812 1724.44,515.812 C1723.76,515.812 1722.51,515.391 1720.68,514.551 C1718.86,513.71 1717.95,513.093 1717.95,512.7 C1717.95,512.556 1718.09,512.467 1718.37,512.431 C1718.41,512.431 1718.5,512.431 1718.64,512.431 C1720.04,512.574 1721.49,512.709 1722.99,512.834 C1724.49,512.959 1725.69,513.022 1726.58,513.022 C1730.09,513.022 1734.1,512.878 1738.6,512.592 C1740.11,512.521 1742,512.378 1744.29,512.163 C1744.44,512.163 1744.79,512.029 1745.37,511.761 C1745.94,511.492 1746.26,511.358 1746.33,511.358 C1746.8,511.358 1747.57,511.582 1748.67,512.029 C1749.76,512.476 1750.3,512.896 1750.3,513.29 C1750.3,513.504 1750.1,513.8 1749.71,514.175 C1749.32,514.551 1749.12,514.774 1749.12,514.846 C1748.94,515.526 1748.82,516.062 1748.75,516.456 C1748.53,517.278 1748.27,518.191 1747.97,519.192 C1747.66,520.194 1747.33,521.088 1746.97,521.875 C1746.94,522.018 1746.87,522.179 1746.76,522.358 C1747.37,522.394 1747.82,522.43 1748.1,522.465 C1749,522.644 1749.44,522.966 1749.44,523.431 C1749.44,523.861 1749.18,524.147 1748.67,524.29 C1748.15,524.433 1747.57,524.504 1746.92,524.504 L1725.67,525.309 L1725.67,532.822 C1725.67,533.573 1725.76,534.056 1725.94,534.27 C1726.12,534.485 1726.57,534.592 1727.28,534.592 L1734.79,534.485 L1742.47,534.056 C1743.29,533.662 1743.94,533.331 1744.43,533.063 C1744.91,532.795 1745.24,532.661 1745.42,532.661 L1748.42,532.553 C1749.32,532.553 1750.03,532.634 1750.57,532.795 C1751.11,532.956 1751.37,533.358 1751.37,534.002 C1751.37,534.753 1751.03,535.236 1750.33,535.451 C1749.63,535.665 1748.57,535.773 1747.14,535.773 L1737.42,535.934 L1737.21,545.592 L1742.2,545.485 C1743.56,545.485 1744.98,545.413 1746.47,545.27 C1747.95,545.127 1748.82,545.02 1749.07,544.948 C1749.39,544.948 1749.85,544.805 1750.46,544.519 C1751.07,544.233 1751.73,543.929 1752.45,543.607 C1754.52,543.607 1756.31,543.723 1757.81,543.956 C1759.32,544.188 1760.07,544.716 1760.07,545.539"/>
<path class="Lyrics" d="M1736.75,583.605 L1723.55,583.981 L1723.82,601.151 L1735.89,600.507 C1736.11,599.076 1736.28,597.583 1736.4,596.027 C1736.53,594.471 1736.59,592.995 1736.59,591.6 C1736.59,588.846 1736.6,587.012 1736.62,586.1 C1736.63,585.188 1736.68,584.356 1736.75,583.605 M1740.56,585.698 C1741.45,585.769 1742.25,585.832 1742.95,585.885 C1743.65,585.939 1744.07,585.966 1744.21,585.966 L1752.04,585.698 L1751.94,576.2 C1751.94,575.52 1751.22,574.85 1749.79,574.188 C1748.36,573.526 1746.91,572.837 1745.44,572.122 C1745.44,571.8 1745.66,571.576 1746.09,571.451 C1746.52,571.326 1746.91,571.263 1747.27,571.263 C1748.56,571.263 1750.17,571.532 1752.1,572.068 C1754.57,572.748 1755.8,573.517 1755.8,574.376 L1755.64,577.273 L1755.48,616.015 C1755.48,617.839 1755.29,619.359 1754.91,620.576 C1754.54,621.792 1754.05,622.4 1753.44,622.4 C1753.15,622.4 1752.9,621.89 1752.69,620.871 C1752.47,619.851 1752.37,618.733 1752.37,617.517 L1752.1,598.361 L1745.12,598.737 C1744.91,598.844 1744.69,598.951 1744.48,599.059 C1743.98,599.309 1743.55,599.434 1743.19,599.434 C1742.69,599.434 1741.94,599.175 1740.94,598.656 C1739.93,598.137 1739.2,597.681 1738.74,597.288 L1738.31,600.132 C1738.88,600.168 1739.29,600.221 1739.54,600.293 C1740.4,600.507 1740.83,600.883 1740.83,601.42 C1740.83,601.849 1740.61,602.144 1740.16,602.305 C1739.71,602.466 1739.13,602.546 1738.41,602.546 L1735.89,602.439 C1733.1,602.439 1730.29,602.511 1727.47,602.654 C1726.47,602.689 1725.2,602.779 1723.66,602.922 C1723.66,603.566 1723.55,604.174 1723.34,604.746 C1722.98,605.712 1722.44,606.195 1721.73,606.195 C1721.37,606.195 1721.08,605.48 1720.87,604.049 C1720.83,603.834 1720.78,603.494 1720.71,603.029 L1719.96,585.268 C1719.96,584.732 1719.17,584.177 1717.59,583.605 C1716.02,583.033 1715.23,582.585 1715.23,582.263 C1715.23,581.906 1715.61,581.664 1716.36,581.539 C1717.11,581.414 1717.77,581.351 1718.35,581.351 C1718.95,581.351 1719.65,581.441 1720.44,581.62 C1722.33,582.049 1723.32,582.263 1723.39,582.263 C1724.43,582.263 1726.58,582.228 1729.86,582.156 C1733.13,582.085 1734.87,581.995 1735.09,581.888 C1735.34,581.888 1735.68,581.816 1736.11,581.673 C1737.11,581.351 1737.64,581.19 1737.72,581.19 C1738.5,581.19 1739.45,581.441 1740.56,581.942 C1741.28,582.263 1741.63,582.585 1741.63,582.907 C1741.63,583.122 1741.47,583.533 1741.15,584.142 C1740.83,584.75 1740.63,585.268 1740.56,585.698 M1738.84,596.644 L1739.06,596.644 C1739.42,596.644 1740.18,596.689 1741.34,596.778 C1742.5,596.868 1743.3,596.912 1743.73,596.912 L1752.04,596.698 L1752.04,587.415 L1745.87,587.79 C1745.84,587.79 1745.51,587.88 1744.88,588.059 C1744.25,588.237 1743.76,588.327 1743.4,588.327 C1742.9,588.327 1742.37,588.184 1741.79,587.898 C1741.51,587.755 1741.03,587.45 1740.35,586.985 C1740.13,588.81 1739.94,590.232 1739.78,591.251 C1739.62,592.271 1739.31,594.068 1738.84,596.644"/>
<path class="Lyrics" d="M576.116,509.319 C576.044,509.784 575.49,510.16 574.452,510.446 C573.415,510.732 572.091,510.875 570.482,510.875 L567.53,510.714 C566.994,510.714 565.876,510.267 564.177,509.373 C562.478,508.478 561.628,507.745 561.628,507.173 C561.628,506.994 561.807,506.904 562.165,506.904 C562.558,506.904 563.452,507.03 564.848,507.28 C566.243,507.53 567.191,507.656 567.691,507.656 L573.594,507.656 C575.311,507.656 576.169,508.031 576.169,508.783 L576.116,509.319 M581.428,516.348 L579.067,516.295 L570.428,516.563 C569.212,516.563 567.969,516.617 566.699,516.724 C565.429,516.831 564.329,516.983 563.399,517.18 C562.469,517.377 561.485,517.583 560.448,517.797 C559.804,517.797 558.695,517.43 557.121,516.697 C555.547,515.964 554.76,515.4 554.76,515.007 C554.76,514.864 554.885,514.774 555.135,514.739 C555.171,514.739 555.243,514.739 555.35,514.739 C555.708,514.739 556.28,514.792 557.067,514.9 C558.927,515.15 560.072,515.275 560.501,515.275 C562.218,515.275 565.223,515.177 569.516,514.98 C573.809,514.783 576.241,514.578 576.813,514.363 C577.243,514.363 577.69,514.256 578.155,514.041 C579.371,513.469 580.158,513.183 580.516,513.183 C582.304,513.183 583.539,513.317 584.218,513.585 C584.898,513.853 585.238,514.291 585.238,514.9 C585.202,515.472 584.844,515.856 584.165,516.053 C583.485,516.25 582.573,516.348 581.428,516.348 M603.482,524.934 C603.374,525.649 602.981,526.043 602.301,526.114 C601.622,526.186 600.62,526.222 599.296,526.222 L592.696,526.436 L592.696,527.187 C592.696,529.298 592.473,530.935 592.026,532.097 C591.578,533.26 590.943,533.841 590.121,533.841 C589.87,533.841 589.665,533.322 589.504,532.285 C589.343,531.248 589.262,530.031 589.262,528.636 L589.155,510.285 C589.155,509.713 588.511,509.051 587.223,508.3 C585.792,507.548 584.379,506.797 582.984,506.046 C583.056,505.402 583.7,505.08 584.916,505.08 C586.061,505.08 587.679,505.411 589.772,506.073 C591.865,506.735 592.911,507.441 592.911,508.192 C592.911,508.335 592.875,508.657 592.804,509.158 C592.732,509.659 592.696,510.106 592.696,510.5 L592.643,524.88 L595.165,524.558 C595.487,524.522 596.005,524.272 596.721,523.807 C596.935,523.664 597.275,523.431 597.74,523.109 L599.618,523.109 C600.835,523.109 601.782,523.199 602.462,523.378 C603.142,523.556 603.482,523.968 603.482,524.612 L603.482,524.934 M579.926,527.67 C579.926,529.96 578.817,531.73 576.599,532.983 C574.703,534.056 572.521,534.592 570.052,534.592 C566.976,534.592 564.499,533.832 562.621,532.312 C560.743,530.791 559.804,529.012 559.804,526.973 L559.804,526.651 C559.804,523.646 561.306,521.553 564.311,520.373 C565.849,520.015 567.387,519.657 568.926,519.3 C569.104,519.156 569.194,518.906 569.194,518.548 C569.194,518.298 569.122,517.958 568.979,517.529 C568.836,517.1 568.765,516.778 568.765,516.563 C568.765,516.277 568.908,516.134 569.194,516.134 C569.73,516.134 570.312,516.411 570.938,516.965 C571.564,517.52 571.877,518.101 571.877,518.709 C571.877,518.996 571.859,519.192 571.823,519.3 C571.823,519.335 571.787,519.371 571.716,519.407 C573.54,519.836 574.9,520.283 575.794,520.748 C578.548,522.251 579.926,524.433 579.926,527.295 L579.926,527.67 M592.482,538.992 L592.267,550.69 C592.267,551.906 592.124,552.997 591.838,553.963 C591.373,555.573 590.639,556.378 589.638,556.378 C589.352,556.378 589.182,556.047 589.128,555.385 C589.074,554.723 589.03,554.052 588.994,553.373 L573.487,553.587 C573.236,554.231 573.039,554.714 572.896,555.036 C572.36,556.038 571.841,556.539 571.34,556.539 C570.947,556.539 570.669,556.226 570.509,555.6 C570.348,554.974 570.267,554.231 570.267,553.373 L570.267,540.334 C570.267,540.083 569.453,539.627 567.826,538.965 C566.198,538.304 565.384,537.883 565.384,537.704 C565.384,537.383 565.599,537.159 566.028,537.034 C566.457,536.909 566.904,536.846 567.369,536.846 C567.87,536.846 568.908,536.989 570.482,537.275 C571.054,537.383 571.644,537.481 572.252,537.57 C572.861,537.66 573.281,537.856 573.513,538.161 C573.746,538.465 573.862,538.813 573.862,539.207 C573.862,539.457 573.844,539.672 573.809,539.851 C573.809,539.922 573.773,540.012 573.701,540.119 L573.701,542.426 L588.994,542.158 L588.994,537.973 C588.994,537.865 588.296,537.454 586.901,536.739 C585.506,536.023 584.809,535.594 584.809,535.451 C584.809,535.129 584.952,534.923 585.238,534.834 C585.524,534.744 585.864,534.7 586.257,534.7 C587.509,534.7 588.761,534.878 590.013,535.236 C591.766,535.737 592.643,536.435 592.643,537.329 L592.482,538.992 M577.135,527.295 L577.135,527.08 C577.135,525.435 576.545,524.039 575.365,522.895 C573.862,521.428 572.467,520.695 571.179,520.695 C570.929,521.231 569.426,521.893 566.672,522.68 C564.311,523.36 563.13,524.755 563.13,526.865 C563.13,528.439 563.917,529.727 565.491,530.729 C566.851,531.587 568.371,532.017 570.052,532.017 C571.841,532.017 573.379,531.677 574.667,530.997 C576.313,530.139 577.135,528.904 577.135,527.295 M588.994,551.602 L588.994,543.929 L573.701,544.251 L573.701,551.87 L588.994,551.602 "/>
<path class="NoteDot" d="M1267.07,404.233 C1267.07,407.033 1269.27,409.233 1272.07,409.233 C1274.87,409.233 1277.07,407.033 1277.07,404.233 C1277.07,401.433 1274.87,399.233 1272.07,399.233 C1269.27,399.233 1267.07,401.433 1267.07,404.233"/>
<path class="NoteDot" d="M329.467,379.233 C329.467,382.033 331.667,384.233 334.467,384.233 C337.267,384.233 339.467,382.033 339.467,379.233 C339.467,376.433 337.267,374.233 334.467,374.233 C331.667,374.233 329.467,376.433 329.467,379.233"/>
</svg>
